<?xml version="1.0" encoding="utf-8"?>
<!-- Generated by IcoMoon.io -->
<!DOCTYPE svg PUBLIC "-//W3C//DTD SVG 1.1//EN" "http://www.w3.org/Graphics/SVG/1.1/DTD/svg11.dtd">

<svg version="1.1" xmlns="http://www.w3.org/2000/svg" xmlns:xlink="http://www.w3.org/1999/xlink" width="35px" height="35px" viewBox="0 0 35 35">
<g id="icon-treehouse" fill="#6fbc6d">
	<path class="path1" d="M26.056 5.737c-1.063-0.602-2.76 0.366-3.792 2.162l-1.867 3.252c-0.682 1.352-0.589 2.961 0.276 4.204l0.055 0.079c0.865 1.242 2.025 2.391 2.408 2.801 0.226 0.241 0.398 0.538 0.494 0.878 0.315 1.129-0.343 2.301-1.47 2.616-1.128 0.316-2.297-0.343-2.613-1.473-0.079-0.283-0.097-0.569-0.061-0.844 0.060-0.466-0.089-1.226-0.757-1.972-0.668-0.746-2.033 0.663-2.475 2.112l-0.020 0.067c-0.441 1.449-0.72 2.713-0.636 2.835 0.049 0.072 0.096 0.148 0.138 0.228 0.619 1.167 0.176 2.615-0.989 3.236-1.165 0.62-2.612 0.177-3.231-0.99-0.619-1.167-0.176-2.615 0.989-3.235 0.052-0.028 0.105-0.054 0.158-0.077 0.089-0.040 0.342-0.649 0.56-1.368 0.219-0.719 0.397-1.302 0.397-1.302 0.023-0.077 0.044-0.153 0.062-0.227l1.179-4.216-1.261 2.592c-0.149-0.492-0.396-0.51-0.938-0.122-0.326 0.234-0.866 0.695-1.13 0.884-0.495 0.355-0.909 1.044-1.129 1.466-0.129 0.248-0.309 0.475-0.54 0.663-0.903 0.734-2.229 0.595-2.961-0.309-0.733-0.904-0.594-2.232 0.308-2.965 0.265-0.215 0.566-0.355 0.877-0.423 0.53-0.115 2.335-1.219 3.421-1.998 0.195-0.139 0.358-0.271 0.491-0.394l2.902-2.207-2.528 1.368c0 0-0.257-0.026-0.572 0.009-0.925 0.102-1.878 0.233-2.058 0.462-0.106 0.136-0.233 0.259-0.38 0.364-0.843 0.609-2.020 0.417-2.627-0.428-0.608-0.844-0.416-2.023 0.427-2.631 0.348-0.251 0.753-0.366 1.15-0.355 0.677 0.019 2.457 0.38 3.946 0.116l0.383-0.067c1.489-0.265 3.272-1.563 3.983-2.9 0 0 0.696-1.224 1.554-2.733 0.858-1.509 0.795-3.163-0.141-3.693l-1.695-0.959c-0.855-0.485-2.256-0.485-3.111-0.002l-11.676 6.591c-0.856 0.483-1.556 1.684-1.556 2.667v12.882c0 0.984 0.7 2.185 1.556 2.668l11.677 6.592c0.856 0.483 2.256 0.482 3.111-0.002l11.637-6.589c0.855-0.484 1.555-1.685 1.555-2.67v-12.882c0-0.984-0.7-2.185-1.555-2.669-0 0-0.862-0.488-1.925-1.090z" />
</g>
</svg>
